<svg width="32" height="32" viewBox="0 0 32 32" fill="none" xmlns="http://www.w3.org/2000/svg">
<path d="M22.6664 8.07992C21.7416 8.08054 20.8457 8.40151 20.131 8.98824C19.4163 9.57497 18.9269 10.3912 18.7462 11.2981C18.5654 12.2049 18.7045 13.1464 19.1396 13.9623C19.5748 14.7782 20.2792 15.4182 21.133 15.7733C20.93 16.2598 20.5874 16.6753 20.1483 16.9672C19.7093 17.2591 19.1936 17.4144 18.6664 17.4133H13.333C12.3931 17.4172 11.4717 17.6752 10.6663 18.1599V10.5066C11.556 10.1921 12.3058 9.57316 12.7832 8.75928C13.2606 7.9454 13.435 6.98894 13.2754 6.05894C13.1158 5.12895 12.6327 4.2853 11.9112 3.67711C11.1898 3.06892 10.2766 2.73535 9.33302 2.73535C8.38943 2.73535 7.47623 3.06892 6.7548 3.67711C6.03338 4.2853 5.55018 5.12895 5.39062 6.05894C5.23106 6.98894 5.4054 7.9454 5.88284 8.75928C6.36028 9.57316 7.11006 10.1921 7.99968 10.5066V21.6533C7.121 21.9693 6.38056 22.5827 5.90668 23.3873C5.43281 24.1919 5.25535 25.1369 5.40508 26.0586C5.55481 26.9803 6.02228 27.8206 6.72648 28.4338C7.43068 29.047 8.32723 29.3946 9.26076 29.4162C10.1943 29.4378 11.106 29.1321 11.8378 28.5521C12.5696 27.9722 13.0754 27.1544 13.2677 26.2406C13.4599 25.3269 13.3263 24.3746 12.8902 23.549C12.4541 22.7233 11.7428 22.0762 10.8797 21.7199C11.0818 21.2354 11.4224 20.8214 11.8588 20.5296C12.2952 20.2379 12.8081 20.0815 13.333 20.0799H18.6664C19.8861 20.0797 21.069 19.6613 22.0176 18.8946C22.9663 18.1279 23.6235 17.0592 23.8797 15.8666C24.7711 15.5637 25.5271 14.9561 26.0147 14.1507C26.5022 13.3452 26.6901 12.3937 26.5451 11.4634C26.4002 10.5331 25.9317 9.68381 25.2222 9.06492C24.5127 8.44602 23.6077 8.09723 22.6664 8.07992ZM9.33302 5.41325C9.59672 5.41325 9.85451 5.49145 10.0738 5.63796C10.293 5.78447 10.4639 5.99271 10.5649 6.23634C10.6658 6.47998 10.6922 6.74807 10.6407 7.00671C10.5893 7.26535 10.4623 7.50293 10.2758 7.6894C10.0894 7.87587 9.85178 8.00285 9.59314 8.0543C9.3345 8.10575 9.06641 8.07934 8.82277 7.97843C8.57914 7.87751 8.3709 7.70661 8.22439 7.48735C8.07788 7.26808 7.99968 7.0103 7.99968 6.74659C7.99968 6.39297 8.14016 6.05383 8.39021 5.80378C8.64026 5.55373 8.97939 5.41325 9.33302 5.41325ZM9.33302 26.7466C9.06931 26.7466 8.81152 26.6684 8.59226 26.5219C8.37299 26.3754 8.20209 26.1671 8.10118 25.9235C8.00026 25.6799 7.97386 25.4118 8.0253 25.1531C8.07675 24.8945 8.20374 24.6569 8.39021 24.4704C8.57668 24.284 8.81425 24.157 9.0729 24.1055C9.33154 24.0541 9.59963 24.0805 9.84326 24.1814C10.0869 24.2823 10.2951 24.4532 10.4416 24.6725C10.5882 24.8918 10.6663 25.1495 10.6663 25.4133C10.6663 25.7669 10.5259 26.106 10.2758 26.3561C10.0258 26.6061 9.68664 26.7466 9.33302 26.7466ZM22.6664 13.4133C22.4026 13.4133 22.1449 13.3351 21.9256 13.1885C21.7063 13.042 21.5354 12.8338 21.4345 12.5902C21.3336 12.3465 21.3072 12.0784 21.3586 11.8198C21.4101 11.5612 21.5371 11.3236 21.7235 11.1371C21.91 10.9506 22.1476 10.8237 22.4062 10.7722C22.6649 10.7208 22.933 10.7472 23.1766 10.8481C23.4202 10.949 23.6285 11.1199 23.775 11.3392C23.9215 11.5584 23.9997 11.8162 23.9997 12.0799C23.9997 12.4335 23.8592 12.7727 23.6092 13.0227C23.3591 13.2728 23.02 13.4133 22.6664 13.4133Z" fill="#6F5AD7"/>
</svg>
