<svg width="32" height="32" viewBox="0 0 32 32" fill="none" xmlns="http://www.w3.org/2000/svg">
<path d="M8.82699 17.44C8.66153 17.4999 8.51126 17.5954 8.38684 17.7199C8.26241 17.8443 8.16687 17.9946 8.10699 18.16C8.01 18.4023 7.98626 18.6678 8.03871 18.9234C8.09115 19.1791 8.21748 19.4138 8.40203 19.5983C8.58659 19.7829 8.82124 19.9092 9.07691 19.9616C9.33258 20.0141 9.59802 19.9903 9.84033 19.8933C10.0019 19.8258 10.1507 19.7311 10.2803 19.6133C10.3981 19.4837 10.4928 19.3349 10.5603 19.1733C10.635 19.0151 10.6715 18.8416 10.667 18.6667C10.6621 18.3137 10.524 17.9755 10.2803 17.72C10.0928 17.535 9.85473 17.4097 9.59608 17.3598C9.33742 17.31 9.06981 17.3379 8.82699 17.44ZM26.347 12.1067L24.5337 6.73335C24.2571 5.95099 23.744 5.27402 23.0655 4.79623C22.3871 4.31844 21.5768 4.06348 20.747 4.06668H11.2537C10.4238 4.06348 9.61359 4.31844 8.93512 4.79623C8.25666 5.27402 7.74359 5.95099 7.46699 6.73335L5.65366 12.1467C4.80076 12.37 4.04555 12.8689 3.50543 13.5657C2.96532 14.2626 2.67056 15.1184 2.66699 16V21.3333C2.66931 22.1586 2.92683 22.9629 3.40424 23.6361C3.88166 24.3093 4.55559 24.8183 5.33366 25.0933V26.6667C5.33366 27.0203 5.47413 27.3594 5.72418 27.6095C5.97423 27.8595 6.31337 28 6.66699 28C7.02061 28 7.35975 27.8595 7.6098 27.6095C7.85985 27.3594 8.00033 27.0203 8.00033 26.6667V25.3333H24.0003V26.6667C24.0003 27.0203 24.1408 27.3594 24.3909 27.6095C24.6409 27.8595 24.98 28 25.3337 28C25.6873 28 26.0264 27.8595 26.2765 27.6095C26.5265 27.3594 26.667 27.0203 26.667 26.6667V25.0933C27.4451 24.8183 28.119 24.3093 28.5964 23.6361C29.0738 22.9629 29.3313 22.1586 29.3337 21.3333V16C29.3301 15.1184 29.0353 14.2626 28.4952 13.5657C27.9551 12.8689 27.1999 12.37 26.347 12.1467V12.1067ZM9.98699 7.57335C10.0764 7.30852 10.2469 7.0785 10.4742 6.9158C10.7015 6.75311 10.9741 6.66596 11.2537 6.66668H20.747C21.0377 6.6515 21.3255 6.73192 21.5662 6.89563C21.807 7.05935 21.9876 7.29737 22.0803 7.57335L23.4803 12H8.52033L9.98699 7.57335ZM26.667 21.3333C26.667 21.687 26.5265 22.0261 26.2765 22.2762C26.0264 22.5262 25.6873 22.6667 25.3337 22.6667H6.66699C6.31337 22.6667 5.97423 22.5262 5.72418 22.2762C5.47413 22.0261 5.33366 21.687 5.33366 21.3333V16C5.33366 15.6464 5.47413 15.3073 5.72418 15.0572C5.97423 14.8072 6.31337 14.6667 6.66699 14.6667H25.3337C25.6873 14.6667 26.0264 14.8072 26.2765 15.0572C26.5265 15.3073 26.667 15.6464 26.667 16V21.3333ZM22.1603 17.44C21.9949 17.4999 21.8446 17.5954 21.7202 17.7199C21.5957 17.8443 21.5002 17.9946 21.4403 18.16C21.3433 18.4023 21.3196 18.6678 21.372 18.9234C21.4245 19.1791 21.5508 19.4138 21.7354 19.5983C21.9199 19.7829 22.1546 19.9092 22.4102 19.9616C22.6659 20.0141 22.9314 19.9903 23.1737 19.8933C23.3391 19.8335 23.4894 19.7379 23.6138 19.6135C23.7382 19.4891 23.8338 19.3388 23.8937 19.1733C23.9683 19.0151 24.0048 18.8416 24.0003 18.6667C23.9954 18.3137 23.8573 17.9755 23.6137 17.72C23.4262 17.535 23.1881 17.4097 22.9294 17.3598C22.6708 17.31 22.4031 17.3379 22.1603 17.44ZM17.3337 17.3333H14.667C14.3134 17.3333 13.9742 17.4738 13.7242 17.7239C13.4741 17.9739 13.3337 18.3131 13.3337 18.6667C13.3337 19.0203 13.4741 19.3594 13.7242 19.6095C13.9742 19.8595 14.3134 20 14.667 20H17.3337C17.6873 20 18.0264 19.8595 18.2765 19.6095C18.5265 19.3594 18.667 19.0203 18.667 18.6667C18.667 18.3131 18.5265 17.9739 18.2765 17.7239C18.0264 17.4738 17.6873 17.3333 17.3337 17.3333Z" fill="#6F5AD7"/>
</svg>
