<svg width="32" height="32" viewBox="0 0 32 32" fill="none" xmlns="http://www.w3.org/2000/svg">
<path d="M26.5198 12.7333C26.409 12.5134 26.2395 12.3285 26.03 12.1991C25.8206 12.0696 25.5794 12.0007 25.3331 12H18.6665V3.99998C18.6808 3.70755 18.5985 3.41855 18.4322 3.17758C18.2659 2.9366 18.0249 2.75705 17.7465 2.66664C17.4788 2.57857 17.1901 2.57758 16.9218 2.66382C16.6535 2.75005 16.4194 2.91908 16.2531 3.14664L5.58648 17.8133C5.45284 18.0065 5.37259 18.2315 5.35386 18.4656C5.33513 18.6998 5.37858 18.9347 5.47982 19.1466C5.57304 19.389 5.735 19.5988 5.9458 19.7504C6.1566 19.902 6.40708 19.9887 6.66648 20H13.3331V28C13.3334 28.2811 13.4224 28.5551 13.5877 28.7826C13.7529 29.01 13.9858 29.1795 14.2531 29.2666C14.3871 29.3082 14.5263 29.3306 14.6665 29.3333C14.8769 29.3339 15.0844 29.2846 15.2721 29.1896C15.4598 29.0946 15.6224 28.9565 15.7465 28.7866L26.4131 14.12C26.5568 13.921 26.6428 13.6863 26.6616 13.4417C26.6804 13.197 26.6314 12.9519 26.5198 12.7333ZM15.9998 23.8933V18.6666C15.9998 18.313 15.8593 17.9739 15.6093 17.7238C15.3592 17.4738 15.0201 17.3333 14.6665 17.3333H9.33315L15.9998 8.10664V13.3333C15.9998 13.6869 16.1403 14.0261 16.3903 14.2761C16.6404 14.5262 16.9795 14.6666 17.3331 14.6666H22.6665L15.9998 23.8933Z" fill="#6F5AD7"/>
</svg>
