<svg width="32" height="32" viewBox="0 0 32 32" fill="none" xmlns="http://www.w3.org/2000/svg">
<path fill-rule="evenodd" clip-rule="evenodd" d="M15.6829 26.4376C12.7431 24.0472 6.04898 17.8398 5.56006 10.5695L15.7755 5.501C15.9164 5.43098 16.0844 5.43098 16.2253 5.501L26.4406 10.5695C25.9516 17.8399 19.2576 24.0472 16.3179 26.4376C16.1338 26.5872 15.867 26.5872 15.6829 26.4376ZM13.844 28.5716C14.4687 29.0794 15.2346 29.3334 16.0003 29.3334C16.7662 29.3334 17.5321 29.0794 18.1568 28.5716C21.5174 25.8389 29.3337 18.5332 29.3337 9.73189C29.3337 9.20918 29.0322 8.73059 28.553 8.49274L17.5285 3.02269C16.5715 2.5481 15.4291 2.5481 14.4722 3.02269L3.4477 8.49274C2.96848 8.73059 2.66699 9.20918 2.66699 9.73189C2.66699 18.5332 10.4832 25.8389 13.844 28.5716ZM18.6742 11.9359C19.1949 11.4152 20.0391 11.4152 20.5598 11.9359C21.0805 12.4566 21.0805 13.3008 20.5598 13.8215L16.3172 18.0641C16.1255 18.2557 15.8901 18.3769 15.643 18.4274C15.5545 18.4456 15.4644 18.4546 15.3743 18.4546C15.0331 18.4547 14.6918 18.3245 14.4315 18.0641L12.0744 15.7071C11.5537 15.1864 11.5537 14.3422 12.0744 13.8215C12.5951 13.3008 13.4394 13.3008 13.9601 13.8215L15.3743 15.2357L18.6742 11.9359Z" fill="#6F5AD7"/>
</svg>
