<svg width="32" height="32" viewBox="0 0 32 32" fill="none" xmlns="http://www.w3.org/2000/svg">
<path d="M28.6397 17.5066C28.6318 17.4148 28.6093 17.3247 28.573 17.24C28.5455 17.1608 28.5098 17.0849 28.4663 17.0133C28.4299 16.9375 28.3851 16.866 28.333 16.8L28.1197 16.6266L27.9997 16.5066L8.37301 5.17329C8.06536 4.99648 7.70007 4.94912 7.3575 5.04164C7.01494 5.13416 6.72315 5.35897 6.54634 5.66662C6.36953 5.97427 6.32217 6.33956 6.41469 6.68213C6.50721 7.0247 6.73202 7.31648 7.03967 7.49329L22.3597 16.3333H4.66634C4.31272 16.3333 3.97358 16.4738 3.72353 16.7238C3.47348 16.9739 3.33301 17.313 3.33301 17.6666V23C3.33301 24.0608 3.75444 25.0782 4.50458 25.8284C5.25473 26.5785 6.27214 27 7.33301 27H24.6663C25.7272 27 26.7446 26.5785 27.4948 25.8284C28.2449 25.0782 28.6663 24.0608 28.6663 23V17.6666C28.6663 17.6666 28.6397 17.56 28.6397 17.5066ZM25.973 23C25.973 23.3536 25.8325 23.6927 25.5825 23.9428C25.3324 24.1928 24.9933 24.3333 24.6397 24.3333H7.33301C6.97939 24.3333 6.64025 24.1928 6.3902 23.9428C6.14015 23.6927 5.99967 23.3536 5.99967 23V19H25.9997L25.973 23ZM21.973 23C22.2367 23 22.4945 22.9218 22.7138 22.7752C22.933 22.6287 23.1039 22.4205 23.2048 22.1769C23.3058 21.9332 23.3322 21.6651 23.2807 21.4065C23.2293 21.1479 23.1023 20.9103 22.9158 20.7238C22.7293 20.5373 22.4918 20.4104 22.2331 20.3589C21.9745 20.3075 21.7064 20.3339 21.4628 20.4348C21.2191 20.5357 21.0109 20.7066 20.8644 20.9259C20.7179 21.1451 20.6397 21.4029 20.6397 21.6666C20.6396 21.844 20.675 22.0196 20.7437 22.1831C20.8123 22.3466 20.9129 22.4948 21.0396 22.619C21.1662 22.7432 21.3164 22.8408 21.4812 22.9062C21.6461 22.9716 21.8223 23.0035 21.9997 23H21.973Z" fill="#6F5AD7"/>
</svg>
