<svg width="36" height="28" viewBox="0 0 36 28" fill="none" xmlns="http://www.w3.org/2000/svg">
<path fill-rule="evenodd" clip-rule="evenodd" d="M35.6627 0C33.5821 3.34623 31.4957 6.6888 29.404 10.0274L26.4211 8.8565L28.2246 5.767L22.4328 8.6731L25.9598 10.0556C26.6862 10.3378 27.5507 10.7017 27.8684 11.5792C28.186 12.4567 27.7137 13.2721 27.2911 13.9633L25.3577 17.0443C23.0727 20.699 20.7858 24.351 18.497 28V24.6143C19.3736 21.7928 20.226 18.9714 21.0546 16.1499C21.2885 15.345 21.5205 14.5397 21.7506 13.7348C21.8887 13.2495 21.8003 12.9589 21.3418 12.7275L17.823 10.9585L14.3181 12.7247C13.8596 12.9561 13.7657 13.2467 13.9093 13.732C14.1377 14.5389 14.3697 15.3441 14.6053 16.1471C15.4303 18.9798 16.2827 21.8013 17.1629 24.6114V27.9972C14.8705 24.3482 12.5836 20.6961 10.3022 17.0415L8.3688 13.9605C7.9434 13.2805 7.4656 12.4764 7.7915 11.5764C8.1175 10.6763 8.9737 10.3378 9.7001 10.0528L13.2271 8.6703L7.4408 5.767L9.2443 8.8678L6.2614 10.0387C4.17169 6.6961 2.08446 3.3499 0 0C1.01064 0.3659 2.02127 0.73237 3.03199 1.09887C7.96 2.88585 12.89 4.6735 17.8313 6.399C22.9192 4.6248 27.983 2.78693 33.0484 0.94847C33.9197 0.63222 34.7911 0.31596 35.6627 0Z" fill="#0A0908"/>
</svg>
