<svg width="47" height="36" viewBox="0 0 47 36" fill="none" xmlns="http://www.w3.org/2000/svg">
<path d="M38.6718 5.30326C37.525 5.1062 36.3636 5.00476 35.1999 5.00001C31.2293 4.99676 27.3415 6.13254 24 8.27195C20.6499 6.16063 16.7627 5.05273 12.8001 5.07981C11.6364 5.08457 10.475 5.186 9.32816 5.38306C8.95249 5.44767 8.61229 5.64396 8.36883 5.93657C8.12536 6.22918 7.99463 6.5989 8.00017 6.97913V26.132C7.99674 26.3665 8.04517 26.5989 8.14201 26.8126C8.23885 27.0263 8.38171 27.2161 8.56044 27.3685C8.73917 27.5209 8.94937 27.6321 9.17609 27.6943C9.4028 27.7564 9.64046 27.768 9.87215 27.7281C12.165 27.332 14.514 27.3977 16.781 27.9213C19.0479 28.4449 21.1869 29.4157 23.072 30.7765L23.264 30.8883H23.44C23.6174 30.962 23.8078 31 24 31C24.1922 31 24.3826 30.962 24.56 30.8883H24.736L24.928 30.7765C26.7999 29.3852 28.9328 28.383 31.2002 27.8292C33.4676 27.2754 35.8233 27.1813 38.1279 27.5525C38.3595 27.5924 38.5972 27.5808 38.8239 27.5187C39.0506 27.4566 39.2608 27.3454 39.4396 27.193C39.6183 27.0406 39.7612 26.8508 39.858 26.637C39.9548 26.4233 40.0033 26.1909 39.9998 25.9564V6.80357C39.9832 6.43991 39.8424 6.09285 39.6009 5.81997C39.3593 5.54708 39.0315 5.36477 38.6718 5.30326ZM22.4 26.515C19.4399 24.9616 16.1449 24.1508 12.8001 24.1529C12.2721 24.1529 11.7441 24.1529 11.2001 24.1529V8.19215C11.733 8.16151 12.2672 8.16151 12.8001 8.19215C16.2135 8.18839 19.5524 9.1876 22.4 11.0651V26.515ZM36.7999 24.2167C36.2559 24.2167 35.7279 24.2167 35.1999 24.2167C31.8551 24.2146 28.5601 25.0254 25.6 26.5789V11.0651C28.4476 9.1876 31.7865 8.18839 35.1999 8.19215C35.7328 8.16151 36.267 8.16151 36.7999 8.19215V24.2167Z" fill="#0A0908"/>
</svg>
