<svg width="32" height="26" viewBox="0 0 32 26" fill="none" xmlns="http://www.w3.org/2000/svg">
<path d="M30.6718 0.30326C29.525 0.106199 28.3636 0.00476378 27.1999 6.9433e-06C23.2293 -0.00324024 19.3415 1.13254 16 3.27195C12.6499 1.16063 8.76272 0.0527265 4.80012 0.0798104C3.63637 0.0845672 2.47503 0.186002 1.32816 0.383064C0.95249 0.44767 0.612293 0.643955 0.368827 0.93657C0.125362 1.22918 -0.00537193 1.5989 0.000169955 1.97913V21.132C-0.0032567 21.3665 0.0451714 21.5989 0.142008 21.8126C0.238846 22.0263 0.381712 22.2161 0.560441 22.3685C0.739171 22.5209 0.949372 22.6321 1.17609 22.6943C1.4028 22.7564 1.64046 22.768 1.87215 22.7281C4.16496 22.332 6.51402 22.3977 8.78098 22.9213C11.0479 23.4449 13.1869 24.4157 15.072 25.7766L15.264 25.8883H15.44C15.6174 25.962 15.8078 26 16 26C16.1922 26 16.3826 25.962 16.56 25.8883H16.736L16.928 25.7766C18.7999 24.3852 20.9328 23.383 23.2002 22.8292C25.4676 22.2754 27.8233 22.1813 30.1279 22.5525C30.3595 22.5924 30.5972 22.5809 30.8239 22.5187C31.0506 22.4566 31.2608 22.3454 31.4396 22.193C31.6183 22.0406 31.7612 21.8508 31.858 21.637C31.9548 21.4233 32.0033 21.1909 31.9998 20.9564V1.80357C31.9832 1.43991 31.8424 1.09285 31.6009 0.819969C31.3593 0.547084 31.0315 0.364768 30.6718 0.30326ZM14.4 21.515C11.4399 19.9616 8.14491 19.1508 4.80012 19.1529C4.27212 19.1529 3.74413 19.1529 3.20014 19.1529V3.19215C3.73302 3.16151 4.26723 3.16151 4.80012 3.19215C8.2135 3.18839 11.5524 4.1876 14.4 6.06508V21.515ZM28.7999 19.2167C28.2559 19.2167 27.7279 19.2167 27.1999 19.2167C23.8551 19.2146 20.5601 20.0254 17.6 21.5789V6.06508C20.4476 4.1876 23.7865 3.18839 27.1999 3.19215C27.7328 3.16151 28.267 3.16151 28.7999 3.19215V19.2167Z" fill="white"/>
</svg>
