<svg width="29" height="29" viewBox="0 0 29 29" fill="none" xmlns="http://www.w3.org/2000/svg">
<path d="M1.79067 19.0685L4.33493 17.5997C4.47274 17.5202 4.63446 17.4925 4.79087 17.5218L9.79687 18.4587C10.2083 18.5357 10.588 18.219 10.5862 17.8004L10.5667 13.4143C10.5662 13.2951 10.5976 13.178 10.6577 13.0751L13.184 8.74995C13.3155 8.52485 13.3037 8.24377 13.1538 8.03047L8.90023 1.97591M23.542 4.68707C16.2086 8.20839 20.2084 12.8751 21.542 13.5417C24.0447 14.7929 27.5252 14.875 27.5252 14.875C27.5361 14.6541 27.5417 14.4319 27.5417 14.2083C27.5417 6.84454 21.5721 0.875 14.2083 0.875C6.84454 0.875 0.875 6.84454 0.875 14.2083C0.875 21.5721 6.84454 27.5417 14.2083 27.5417C14.4319 27.5417 14.6541 27.5362 14.875 27.5253M20.552 27.4614L16.3297 16.3297L27.4614 20.552L22.5252 22.5252L20.552 27.4614Z" stroke="#0A0908" stroke-width="1.74997" stroke-linecap="round" stroke-linejoin="round"/>
</svg>
