<svg width="32" height="32" viewBox="0 0 32 32" fill="none" xmlns="http://www.w3.org/2000/svg">
<path d="M3.58241 20.8602L6.12667 19.3914C6.26449 19.3119 6.42621 19.2842 6.58262 19.3135L11.5886 20.2504C12 20.3274 12.3798 20.0107 12.3779 19.5921L12.3584 15.206C12.3579 15.0868 12.3893 14.9697 12.4494 14.8667L14.9757 10.5416C15.1072 10.3165 15.0954 10.0355 14.9456 9.82216L10.692 3.7676M25.3337 6.47875C18.0004 10.0001 22.0001 14.6667 23.3337 15.3334C25.8365 16.5846 29.3169 16.6667 29.3169 16.6667C29.3278 16.4458 29.3334 16.2236 29.3334 16C29.3334 8.63622 23.3639 2.66669 16.0001 2.66669C8.63628 2.66669 2.66675 8.63622 2.66675 16C2.66675 23.3638 8.63628 29.3334 16.0001 29.3334C16.2236 29.3334 16.4459 29.3278 16.6667 29.317M22.3438 29.2531L18.1214 18.1214L29.2531 22.3437L24.3169 24.3169L22.3438 29.2531Z" stroke="#0A0908" stroke-width="1.74997" stroke-linecap="round" stroke-linejoin="round"/>
</svg>
