<svg width="59" height="24" viewBox="0 0 59 24" fill="none" xmlns="http://www.w3.org/2000/svg">
<g clip-path="url(#clip0_290_4257)">
<path d="M41.0857 3.42388C41.037 3.56218 40.976 3.73752 40.9126 3.94991C40.4605 5.494 40.2782 7.10621 40.3738 8.71385L43.909 7.05178L41.9902 2.8929C41.6797 3.05371 41.3778 3.23095 41.0857 3.42388ZM40.4153 9.28928C40.5521 10.7301 40.8911 12.1438 41.4222 13.4877L45.9106 11.3761L44.126 7.5383L40.4153 9.28928ZM42.0609 14.8954C42.7431 16.2214 43.6084 17.4422 44.6306 18.5208L48.3877 16.755L46.564 12.7789L42.0609 14.8954ZM45.0353 18.9184C46.2167 20.0779 47.5856 21.0234 49.0825 21.7141C49.2337 21.7832 49.3677 21.84 49.4823 21.8869C49.848 21.7717 50.2137 21.6359 50.5795 21.4794L48.629 17.2317L45.0353 18.9184ZM48.6607 22.1092C47.123 21.3734 45.7212 20.376 44.516 19.1605L41.1028 20.7707C42.2017 21.5134 43.4413 22.016 44.7425 22.2464C46.0438 22.4769 47.3783 22.4302 48.6607 22.1092ZM44.126 18.753C43.1176 17.6665 42.2611 16.445 41.5806 15.1226L37.7237 16.9378L36.2779 17.6194C36.1755 17.4268 36.078 17.2317 35.9878 17.0316C35.3365 15.6182 34.967 14.0884 34.9005 12.53C34.8339 10.9716 35.0717 9.41526 35.6001 7.95012C36.1285 6.48499 36.9372 5.13991 37.9798 3.99196C39.0223 2.84401 40.2783 1.91578 41.6757 1.26047C46.8078 -1.15237 52.4665 0.129372 55.7335 4.52534L54.2706 5.24894C53.7732 4.61923 53.1998 4.05506 52.564 3.56959L49.0094 5.24153C50.0031 6.28032 50.8484 7.45493 51.5205 8.73114L56.3844 6.44178L56.894 6.21952C57.0354 6.46648 57.167 6.7332 57.2914 6.99992C57.9426 8.41353 58.312 9.94344 58.3783 11.5019C58.4447 13.0604 58.2067 14.6169 57.6781 16.082C57.1494 17.5472 56.3405 18.8922 55.2977 20.0401C54.2548 21.1879 52.9986 22.116 51.601 22.7711C46.4714 25.1889 40.8053 23.9293 37.5432 19.5087L38.9914 18.7678C39.4634 19.3727 40.0044 19.919 40.603 20.3953L44.126 18.753ZM40.9394 13.7149C40.408 12.3747 40.0602 10.9671 39.9057 9.53131L36.5144 11.1267C36.3833 12.6187 36.5798 14.1216 37.0898 15.5276L40.9394 13.7149ZM39.8545 8.95835C39.731 7.27211 39.9001 5.577 40.3543 3.94991C38.3184 5.56481 36.9691 7.90705 36.5826 10.4969L39.8545 8.95835ZM48.8753 16.5179L52.7981 14.6731C52.639 13.1877 52.2703 11.7331 51.7034 10.3537L47.0516 12.5492L48.8753 16.5179ZM53.3125 14.4311L56.7843 12.7962C56.9011 11.2577 56.6719 9.71245 56.1138 8.27673L52.1837 10.124C52.757 11.4981 53.1362 12.9473 53.3101 14.4286L53.3125 14.4311ZM56.7233 13.421L53.371 14.9966C53.5107 16.6984 53.3698 18.4119 52.9541 20.0668C55.0096 18.4268 56.36 16.0458 56.7233 13.421ZM52.8541 15.2387L49.1069 17.0045L51.0695 21.2522C51.4781 21.0545 51.8731 20.8293 52.2519 20.578C52.2885 20.4595 52.33 20.3311 52.3739 20.1656C52.8146 18.5638 52.9795 16.8972 52.8615 15.2387H52.8541ZM44.4063 6.81964L48.1097 5.09089C46.945 3.9771 45.5967 3.07857 44.126 2.43602C43.9065 2.3397 43.7237 2.26808 43.5823 2.21622C43.2021 2.34443 42.8287 2.49197 42.4632 2.65829L44.4063 6.81964ZM48.6315 4.84392L52.0715 3.20902C50.9509 2.4742 49.691 1.98478 48.3726 1.77213C47.0543 1.55948 45.7066 1.62831 44.4161 1.9742C45.9686 2.6751 47.3898 3.64263 48.6168 4.83404L48.6315 4.84392ZM48.5047 5.48356L44.6136 7.3111L46.386 11.1489L51.0402 8.95835C50.3646 7.68501 49.5142 6.51511 48.5144 5.48356H48.5047ZM5.41714 3.73752C4.08597 3.75728 1.62355 4.42408 0.499609 9.07442C-0.0502576 11.2478 -0.138343 13.5147 0.241178 15.7252C0.550626 17.5885 1.06501 19.411 1.77471 21.1584C1.93098 21.5218 2.13078 21.8644 2.36959 22.1784C2.58751 22.4451 2.88406 22.6341 3.21576 22.7177C3.54747 22.8012 3.89687 22.7749 4.21275 22.6427C4.62965 22.4352 5.10995 21.9314 4.94416 20.7855C4.82663 20.1706 4.67193 19.5635 4.48093 18.9678C4.06159 17.5823 3.50572 15.9129 3.45696 14.7225C3.39113 13.132 4.01039 12.9246 4.43217 12.8332C5.12458 12.6776 5.70483 13.4482 6.25583 14.4113C6.91166 15.5622 8.04048 17.6021 8.95962 19.158C9.78855 20.5657 11.3196 22.0697 13.7796 21.9684C16.2859 21.8622 18.134 20.8941 19.0873 17.8417C19.7992 15.5597 20.2843 13.8557 21.0669 12.1071C21.9641 10.0993 23.1637 9.02503 24.173 9.3535C25.1092 9.65726 25.3433 10.5883 25.3555 11.9491C25.3403 13.1243 25.2589 14.2976 25.1117 15.4634C25.0508 15.949 25.0239 16.4384 25.0312 16.9279C25.0897 17.7058 25.4213 18.4838 26.2868 18.6073C27.2084 18.7406 27.9495 17.9948 28.2372 17.0909C28.3598 16.6706 28.4495 16.2412 28.5054 15.8067C28.7751 14.069 28.8488 12.3058 28.7248 10.5513C28.6283 8.38617 28.1614 6.25449 27.3449 4.25121C26.594 2.49035 25.3945 1.36172 23.8366 1.26294C22.1299 1.15181 20.1527 2.30513 19.1214 4.54016C18.1681 6.60231 17.4148 8.71879 16.9467 9.79803C16.4785 10.8773 15.7886 11.5688 14.7305 11.6824C13.4359 11.8207 12.3217 10.8674 11.5049 9.51155C10.793 8.32859 9.3814 6.07628 8.62561 5.31316C7.90638 4.59943 7.09452 3.70295 5.40739 3.73752H5.41714Z" fill="#0A0908"/>
</g>
<defs>
<clipPath id="clip0_290_4257">
<rect width="59" height="24" fill="white"/>
</clipPath>
</defs>
</svg>
